<svg xmlns="http://www.w3.org/2000/svg" width="40" height="40" viewBox="0 0 40 40" fill="none">
  <path fill-rule="evenodd" clip-rule="evenodd"
    d="M20.006 4C22.145 4 23.9853 7.39855 24.7651 12.241H15.2469C16.0267 7.39855 17.867 4 20.006 4ZM15.021 20.9119C14.908 19.8023 14.8424 18.6486 14.8424 17.4436C14.8424 16.2421 14.908 15.0848 15.021 13.9752H24.9837C25.0966 15.0848 25.1623 16.2421 25.1623 17.4436C25.1623 18.645 25.0966 19.7987 24.9837 20.9119H15.021ZM23.8044 4.56199C27.6525 5.71199 30.7644 8.55942 32.3022 12.2409H26.4936C26.0199 9.15463 25.1162 6.39537 23.8044 4.56199ZM16.1971 4.56199C12.3563 5.71199 9.23701 8.55942 7.70652 12.2409H13.5151C13.9815 9.15463 14.8852 6.39537 16.1971 4.56199ZM26.7119 13.9752H32.8776C33.1691 15.0848 33.3368 16.2421 33.3368 17.4436C33.3368 18.645 33.1691 19.7987 32.874 20.9119H26.7119C26.8249 19.7766 26.8906 18.6083 26.8906 17.4436C26.8906 16.2789 26.8249 15.1142 26.7119 13.9752ZM13.122 17.4436C13.122 16.2789 13.1876 15.1105 13.3006 13.9752H7.13127C6.83975 15.0885 6.66848 16.2421 6.66848 17.4436C6.66848 18.645 6.83975 19.8023 7.13127 20.912H13.2933C13.1876 19.7767 13.122 18.6119 13.122 17.4436ZM4 25.3373C4 23.8005 5.24582 22.5547 6.78261 22.5547H33.2174C34.7542 22.5547 36 23.8005 36 25.3373V33.2174C36 34.7542 34.7542 36 33.2174 36H6.78261C5.24582 36 4 34.7542 4 33.2174V25.3373ZM10.9109 28.1569H8.48666V25.9161H6.66848V32.6388H8.48666V29.8376H10.9109V32.6388H12.7291V25.9161H10.9109V28.1569ZM13.9412 27.5968H15.7594V32.6388H17.5776V27.5968H19.3958V25.9161H13.9412V27.5968ZM20.6079 27.5968H22.426V32.6388H24.2442V27.5968H26.0625V25.9161H20.6079V27.5968ZM31.5169 25.9161H27.2746V32.6388H29.0927V30.3979H31.5169C32.5472 30.3979 33.3351 29.6696 33.3351 28.7172V27.5968C33.3351 26.6445 32.5472 25.9161 31.5169 25.9161ZM31.5169 28.7172H29.0927V27.5968H31.5169V28.7172Z"
    fill="#3370FF" />
</svg>
